<?xml version="1.0" encoding="UTF-8" standalone="no"?>
<!-- Created with Inkscape (http://www.inkscape.org/) -->
<svg xmlns:dc="http://purl.org/dc/elements/1.1/" xmlns:cc="http://creativecommons.org/ns#" xmlns:rdf="http://www.w3.org/1999/02/22-rdf-syntax-ns#" xmlns:svg="http://www.w3.org/2000/svg" xmlns="http://www.w3.org/2000/svg" xmlns:xlink="http://www.w3.org/1999/xlink" xmlns:sodipodi="http://sodipodi.sourceforge.net/DTD/sodipodi-0.dtd" xmlns:inkscape="http://www.inkscape.org/namespaces/inkscape" width="64" height="64" id="svg3866" version="1.1" inkscape:version="0.47 r22583" sodipodi:docname="icon.svg">
  <defs id="defs3868">
    <inkscape:perspective sodipodi:type="inkscape:persp3d" inkscape:vp_x="0 : 32 : 1" inkscape:vp_y="0 : 1000 : 0" inkscape:vp_z="64 : 32 : 1" inkscape:persp3d-origin="32 : 21.333333 : 1" id="perspective93"/>
    <linearGradient id="linearGradient4758">
      <stop style="stop-color:#fbd477;stop-opacity:1;" offset="0" id="stop4760"/>
      <stop style="stop-color:#f7b707;stop-opacity:1;" offset="1" id="stop4762"/>
    </linearGradient>
    <linearGradient id="linearGradient4750">
      <stop style="stop-color:#fab150;stop-opacity:1;" offset="0" id="stop4752"/>
      <stop style="stop-color:#e78707;stop-opacity:1;" offset="1" id="stop4754"/>
    </linearGradient>
    <linearGradient id="linearGradient4547">
      <stop style="stop-color:#070700;stop-opacity:0.3764706;" offset="0" id="stop4549"/>
      <stop style="stop-color:#070700;stop-opacity:0;" offset="1" id="stop4551"/>
    </linearGradient>
    <linearGradient id="linearGradient4434">
      <stop style="stop-color:#b7b7b0;stop-opacity:1;" offset="0" id="stop4436"/>
      <stop style="stop-color:#777770;stop-opacity:1;" offset="1" id="stop4438"/>
    </linearGradient>
    <linearGradient id="linearGradient4424">
      <stop style="stop-color:#fffff7;stop-opacity:1;" offset="0" id="stop4426"/>
      <stop style="stop-color:#b7b7b0;stop-opacity:1;" offset="1" id="stop4428"/>
    </linearGradient>
    <linearGradient id="linearGradient4406">
      <stop style="stop-color:#f7f7f0;stop-opacity:1;" offset="0" id="stop4408"/>
      <stop style="stop-color:#f7f7f0;stop-opacity:0;" offset="1" id="stop4410"/>
    </linearGradient>
    <radialGradient inkscape:collect="always" xlink:href="#linearGradient4424" id="radialGradient4430" cx="32" cy="25.717731" fx="32" fy="25.717731" r="9.8137328" gradientTransform="matrix(3.2607367,1.113192e-7,-1.113192e-7,3.2607367,-72.343572,-51.858755)" gradientUnits="userSpaceOnUse"/>
    <linearGradient inkscape:collect="always" xlink:href="#linearGradient4434" id="linearGradient4440" x1="-5" y1="0" x2="-5" y2="64" gradientUnits="userSpaceOnUse"/>
    <radialGradient inkscape:collect="always" xlink:href="#linearGradient4424" id="radialGradient4452" gradientUnits="userSpaceOnUse" gradientTransform="matrix(-3.1154099e-6,-3.2607367,3.2607367,-3.1154099e-6,-51.858651,136.34365)" cx="32" cy="25.717731" fx="32" fy="25.717731" r="9.8137328"/>
    <linearGradient inkscape:collect="always" xlink:href="#linearGradient4434" id="linearGradient4454" gradientUnits="userSpaceOnUse" x1="0" y1="69.000031" x2="64" y2="69.000031"/>
    <radialGradient inkscape:collect="always" xlink:href="#linearGradient4424" id="radialGradient4462" gradientUnits="userSpaceOnUse" gradientTransform="matrix(-3.2607367,6.1723506e-6,-6.1723506e-6,-3.2607367,136.34373,115.85855)" cx="32" cy="25.717731" fx="32" fy="25.717731" r="9.8137328"/>
    <linearGradient inkscape:collect="always" xlink:href="#linearGradient4434" id="linearGradient4464" gradientUnits="userSpaceOnUse" x1="69" y1="64.000061" x2="69" y2="5.9999998e-05"/>
    <radialGradient inkscape:collect="always" xlink:href="#linearGradient4424" id="radialGradient4476" gradientUnits="userSpaceOnUse" gradientTransform="matrix(3.104107e-6,3.2607429,-3.2607367,3.1041011e-6,115.85865,-72.343853)" cx="32" cy="25.717731" fx="32" fy="25.717731" r="9.8137328"/>
    <linearGradient inkscape:collect="always" xlink:href="#linearGradient4434" id="linearGradient4478" gradientUnits="userSpaceOnUse" x1="64.000031" y1="-4.9999399" x2="2.9999999e-05" y2="-4.9999399"/>
    <radialGradient inkscape:collect="always" xlink:href="#linearGradient4424" id="radialGradient4486" gradientUnits="userSpaceOnUse" gradientTransform="matrix(2.3056924,2.3056951,-2.3056904,2.3056877,17.514968,-101.0793)" cx="32" cy="25.717731" fx="32" fy="25.717731" r="9.8137328"/>
    <linearGradient inkscape:collect="always" xlink:href="#linearGradient4434" id="linearGradient4488" gradientUnits="userSpaceOnUse" x1="28.464499" y1="-16.79031" x2="-16.790335" y2="28.464525"/>
    <radialGradient inkscape:collect="always" xlink:href="#linearGradient4424" id="radialGradient4496" gradientUnits="userSpaceOnUse" gradientTransform="matrix(2.3056877,-2.3056904,2.3056857,2.305683,-101.07901,46.485155)" cx="32" cy="25.717731" fx="32" fy="25.717731" r="9.8137328"/>
    <linearGradient inkscape:collect="always" xlink:href="#linearGradient4434" id="linearGradient4498" gradientUnits="userSpaceOnUse" x1="-16.790335" y1="35.535591" x2="28.464499" y2="80.790428"/>
    <radialGradient inkscape:collect="always" xlink:href="#linearGradient4424" id="radialGradient4506" gradientUnits="userSpaceOnUse" gradientTransform="matrix(-2.3056937,-2.3056843,2.3056871,-2.3056965,46.485157,165.07918)" cx="32" cy="25.717731" fx="32" fy="25.717731" r="9.8137328"/>
    <linearGradient inkscape:collect="always" xlink:href="#linearGradient4434" id="linearGradient4508" gradientUnits="userSpaceOnUse" x1="35.535553" y1="80.790443" x2="80.79039" y2="35.535606"/>
    <radialGradient inkscape:collect="always" xlink:href="#linearGradient4424" id="radialGradient4516" gradientUnits="userSpaceOnUse" gradientTransform="matrix(-2.3056843,2.3056994,-2.3056966,-2.3056814,165.07918,17.514514)" cx="32" cy="25.717731" fx="32" fy="25.717731" r="9.8137328"/>
    <linearGradient inkscape:collect="always" xlink:href="#linearGradient4434" id="linearGradient4518" gradientUnits="userSpaceOnUse" x1="80.790413" y1="28.464567" x2="35.53558" y2="-16.790266"/>
    <radialGradient inkscape:collect="always" xlink:href="#linearGradient4547" id="radialGradient4553" cx="32" cy="53.666668" fx="32" fy="53.666668" r="32" gradientTransform="matrix(1,0,0,0.1875,0,47.9375)" gradientUnits="userSpaceOnUse"/>
    <radialGradient inkscape:collect="always" xlink:href="#linearGradient4424" id="radialGradient4576" gradientUnits="userSpaceOnUse" gradientTransform="matrix(3.2607367,1.113192e-7,-1.113192e-7,3.2607367,-72.343572,936.50342)" cx="32" cy="25.717731" fx="32" fy="25.717731" r="9.8137328"/>
    <linearGradient inkscape:collect="always" xlink:href="#linearGradient4434" id="linearGradient4578" gradientUnits="userSpaceOnUse" x1="-5" y1="0" x2="-5" y2="64" gradientTransform="translate(0,988.36217)"/>
    <radialGradient inkscape:collect="always" xlink:href="#linearGradient4424" id="radialGradient4600" gradientUnits="userSpaceOnUse" gradientTransform="matrix(3.2607367,1.113192e-7,-1.113192e-7,3.2607367,-72.343572,936.50342)" cx="32" cy="25.717731" fx="32" fy="25.717731" r="9.8137328"/>
    <linearGradient inkscape:collect="always" xlink:href="#linearGradient4434" id="linearGradient4602" gradientUnits="userSpaceOnUse" gradientTransform="translate(0,988.36217)" x1="-5" y1="0" x2="-5" y2="64"/>
    <radialGradient inkscape:collect="always" xlink:href="#linearGradient4424" id="radialGradient4610" gradientUnits="userSpaceOnUse" gradientTransform="matrix(3.2607367,1.113192e-7,-1.113192e-7,3.2607367,-72.343572,936.50342)" cx="32" cy="25.717731" fx="32" fy="25.717731" r="9.8137328"/>
    <linearGradient inkscape:collect="always" xlink:href="#linearGradient4434" id="linearGradient4612" gradientUnits="userSpaceOnUse" gradientTransform="translate(0,988.36217)" x1="-5" y1="0" x2="-5" y2="64"/>
    <radialGradient inkscape:collect="always" xlink:href="#linearGradient4424" id="radialGradient4632" gradientUnits="userSpaceOnUse" gradientTransform="matrix(3.2607367,1.113192e-7,-1.113192e-7,3.2607367,-72.343572,936.50342)" cx="32" cy="25.717731" fx="32" fy="25.717731" r="9.8137328"/>
    <linearGradient inkscape:collect="always" xlink:href="#linearGradient4434" id="linearGradient4634" gradientUnits="userSpaceOnUse" gradientTransform="translate(0,988.36217)" x1="-5" y1="0" x2="-5" y2="64"/>
    <radialGradient inkscape:collect="always" xlink:href="#linearGradient4424" id="radialGradient4642" gradientUnits="userSpaceOnUse" gradientTransform="matrix(3.2607367,1.113192e-7,-1.113192e-7,3.2607367,-72.343572,936.50342)" cx="32" cy="25.717731" fx="32" fy="25.717731" r="9.8137328"/>
    <linearGradient inkscape:collect="always" xlink:href="#linearGradient4434" id="linearGradient4644" gradientUnits="userSpaceOnUse" gradientTransform="translate(0,988.36217)" x1="-5" y1="0" x2="-5" y2="64"/>
    <radialGradient inkscape:collect="always" xlink:href="#linearGradient4424" id="radialGradient4652" gradientUnits="userSpaceOnUse" gradientTransform="matrix(3.2607367,1.113192e-7,-1.113192e-7,3.2607367,-72.343572,936.50342)" cx="32" cy="25.717731" fx="32" fy="25.717731" r="9.8137328"/>
    <linearGradient inkscape:collect="always" xlink:href="#linearGradient4434" id="linearGradient4654" gradientUnits="userSpaceOnUse" gradientTransform="translate(0,988.36217)" x1="-5" y1="0" x2="-5" y2="64"/>
    <radialGradient inkscape:collect="always" xlink:href="#linearGradient4424" id="radialGradient4662" gradientUnits="userSpaceOnUse" gradientTransform="matrix(3.2607367,1.113192e-7,-1.113192e-7,3.2607367,-72.343572,936.50342)" cx="32" cy="25.717731" fx="32" fy="25.717731" r="9.8137328"/>
    <linearGradient inkscape:collect="always" xlink:href="#linearGradient4434" id="linearGradient4664" gradientUnits="userSpaceOnUse" gradientTransform="translate(0,988.36217)" x1="-5" y1="0" x2="-5" y2="64"/>
    <radialGradient inkscape:collect="always" xlink:href="#linearGradient4424" id="radialGradient4672" gradientUnits="userSpaceOnUse" gradientTransform="matrix(3.2607367,1.113192e-7,-1.113192e-7,3.2607367,-72.343572,936.50342)" cx="32" cy="25.717731" fx="32" fy="25.717731" r="9.8137328"/>
    <linearGradient inkscape:collect="always" xlink:href="#linearGradient4434" id="linearGradient4674" gradientUnits="userSpaceOnUse" gradientTransform="translate(0,988.36217)" x1="-5" y1="0" x2="-5" y2="64"/>
    <radialGradient inkscape:collect="always" xlink:href="#linearGradient4424" id="radialGradient4682" gradientUnits="userSpaceOnUse" gradientTransform="matrix(3.2607367,1.113192e-7,-1.113192e-7,3.2607367,-72.343572,936.50342)" cx="32" cy="25.717731" fx="32" fy="25.717731" r="9.8137328"/>
    <linearGradient inkscape:collect="always" xlink:href="#linearGradient4434" id="linearGradient4684" gradientUnits="userSpaceOnUse" gradientTransform="translate(0,988.36217)" x1="-5" y1="0" x2="-5" y2="64"/>
    <radialGradient inkscape:collect="always" xlink:href="#linearGradient4424" id="radialGradient4692" gradientUnits="userSpaceOnUse" gradientTransform="matrix(3.2607367,1.113192e-7,-1.113192e-7,3.2607367,-72.343572,936.50342)" cx="32" cy="25.717731" fx="32" fy="25.717731" r="9.8137328"/>
    <linearGradient inkscape:collect="always" xlink:href="#linearGradient4434" id="linearGradient4694" gradientUnits="userSpaceOnUse" gradientTransform="translate(0,988.36217)" x1="-5" y1="0" x2="-5" y2="64"/>
    <radialGradient inkscape:collect="always" xlink:href="#linearGradient4424" id="radialGradient4700" gradientUnits="userSpaceOnUse" gradientTransform="matrix(2.3056891,-2.3056889,2.3056889,2.3056891,-101.07914,1034.8471)" cx="32.650558" cy="24.199753" fx="32.650558" fy="24.199753" r="9.8137328"/>
    <radialGradient inkscape:collect="always" xlink:href="#linearGradient4424" id="radialGradient4704" gradientUnits="userSpaceOnUse" gradientTransform="matrix(3.2607367,1.113192e-7,-1.113192e-7,3.2607367,-72.343572,936.50342)" cx="32" cy="25.717731" fx="32" fy="25.717731" r="9.8137328"/>
    <linearGradient inkscape:collect="always" xlink:href="#linearGradient4434" id="linearGradient4706" gradientUnits="userSpaceOnUse" gradientTransform="translate(0,988.36217)" x1="-5" y1="0" x2="-5" y2="64"/>
    <radialGradient inkscape:collect="always" xlink:href="#linearGradient4424" id="radialGradient4710" gradientUnits="userSpaceOnUse" gradientTransform="matrix(3.2607367,1.113192e-7,-1.113192e-7,3.2607367,-72.343572,936.50342)" cx="31.386642" cy="24.184334" fx="31.386642" fy="24.184334" r="9.8137328"/>
    <radialGradient inkscape:collect="always" xlink:href="#linearGradient4424" id="radialGradient4716" gradientUnits="userSpaceOnUse" gradientTransform="matrix(2.3056889,2.3056891,-2.3056891,2.3056889,17.515082,887.28303)" cx="30.482008" cy="25.067175" fx="30.482008" fy="25.067175" r="9.8137328"/>
    <radialGradient inkscape:collect="always" xlink:href="#linearGradient4424" id="radialGradient4722" gradientUnits="userSpaceOnUse" gradientTransform="matrix(-1.113192e-7,3.2607367,-3.2607367,-1.113192e-7,115.85878,916.0186)" cx="30.466604" cy="26.331099" fx="30.466604" fy="26.331099" r="9.8137328"/>
    <radialGradient inkscape:collect="always" xlink:href="#linearGradient4424" id="radialGradient4728" gradientUnits="userSpaceOnUse" gradientTransform="matrix(-2.3056891,2.3056889,-2.3056889,-2.3056891,165.07916,1005.8773)" cx="31.349422" cy="27.235739" fx="31.349422" fy="27.235739" r="9.8137328"/>
    <radialGradient inkscape:collect="always" xlink:href="#linearGradient4424" id="radialGradient4734" gradientUnits="userSpaceOnUse" gradientTransform="matrix(-3.2607367,-1.113192e-7,1.113192e-7,-3.2607367,136.34357,1104.221)" cx="32.613358" cy="27.25115" fx="32.613358" fy="27.25115" r="9.8137328"/>
    <radialGradient inkscape:collect="always" xlink:href="#linearGradient4424" id="radialGradient4740" gradientUnits="userSpaceOnUse" gradientTransform="matrix(-2.3056889,-2.3056891,2.3056891,-2.3056889,46.484918,1153.4413)" cx="33.517975" cy="26.368301" fx="33.517975" fy="26.368301" r="9.8137328"/>
    <radialGradient inkscape:collect="always" xlink:href="#linearGradient4424" id="radialGradient4746" gradientUnits="userSpaceOnUse" gradientTransform="matrix(1.113192e-7,-3.2607367,3.2607367,1.113192e-7,-51.85881,1124.7058)" cx="33.533413" cy="25.104389" fx="33.533413" fy="25.104389" r="9.8137328"/>
    <radialGradient inkscape:collect="always" xlink:href="#linearGradient4758" id="radialGradient4764" cx="11" cy="9.0000782" fx="11" fy="9.0000782" r="10" gradientTransform="matrix(1,0,0,1.000003,0,-3.5476685e-5)" gradientUnits="userSpaceOnUse"/>
  </defs>
  <sodipodi:namedview id="base" pagecolor="#ffffff" bordercolor="#666666" borderopacity="1.0" inkscape:pageopacity="0.0" inkscape:pageshadow="2" inkscape:zoom="8" inkscape:cx="2.984745" inkscape:cy="23.337085" inkscape:document-units="px" inkscape:current-layer="layer1" showgrid="true" inkscape:window-width="1680" inkscape:window-height="998" inkscape:window-x="0" inkscape:window-y="26" inkscape:window-maximized="1">
    <inkscape:grid type="xygrid" id="grid3874" empspacing="5" visible="true" enabled="true" snapvisiblegridlinesonly="true"/>
  </sodipodi:namedview>
  <metadata id="metadata3871">
    <rdf:RDF>
      <cc:Work rdf:about="">
        <dc:format>image/svg+xml</dc:format>
        <dc:type rdf:resource="http://purl.org/dc/dcmitype/StillImage"/>
        <dc:title/>
      </cc:Work>
    </rdf:RDF>
  </metadata>
  <g inkscape:label="Layer 1" inkscape:groupmode="layer" id="layer1" transform="translate(0,-988.36217)">
    <path sodipodi:nodetypes="caaac" inkscape:connector-curvature="0" id="path4628" d="m 32,1020.3622 c 0,0 15.0264,-11.0491 23.00003,-9 3.78224,0.9719 7.5,5.0948 7.5,9 0,3.9051 -3.71776,8.028 -7.5,9 -7.97363,2.049 -23.00003,-9 -23.00003,-9 z" style="fill:url(#radialGradient4722);fill-opacity:1;stroke:#070700;stroke-width:1;stroke-linecap:round;stroke-linejoin:round;stroke-miterlimit:4;stroke-opacity:0.13333333999999999;stroke-dasharray:none"/>
    <path style="fill:none;stroke:#f7f7f0;stroke-width:3;stroke-linecap:round;stroke-linejoin:round;stroke-miterlimit:4;stroke-opacity:0.40000001;stroke-dasharray:none" d="m 37.6,1020.3622 c 0,0 11.056,-7.5382 16.80003,-6 2.53555,0.6789 5.1,3.3751 5.1,6 0,2.6249 -2.56445,5.321 -5.1,6 -5.74403,1.5381 -16.80003,-6 -16.80003,-6 z" id="path4630" inkscape:connector-curvature="0" sodipodi:nodetypes="caaac"/>
    <path style="fill:url(#radialGradient4710);fill-opacity:1;stroke:#070700;stroke-width:1;stroke-linecap:round;stroke-linejoin:round;stroke-miterlimit:4;stroke-opacity:0.13333334;stroke-dasharray:none" d="m 32,1020.3622 c 0,0 -11.049056,-15.0264 -9,-23.00003 0.971952,-3.78224 5.094875,-7.5 9,-7.5 3.905125,0 8.028048,3.71776 9,7.5 2.049056,7.97363 -9,23.00003 -9,23.00003 z" id="path4404" inkscape:connector-curvature="0" sodipodi:nodetypes="caaac"/>
    <path sodipodi:nodetypes="caaac" inkscape:connector-curvature="0" id="path4432" d="m 32,1014.7622 c 0,0 -7.538128,-11.056 -6,-16.80003 0.678963,-2.53555 3.375119,-5.1 6,-5.1 2.624881,0 5.321037,2.56445 6,5.1 1.538128,5.74403 -6,16.80003 -6,16.80003 z" style="fill:none;stroke:#f7f7f0;stroke-width:3;stroke-linecap:round;stroke-linejoin:round;stroke-miterlimit:4;stroke-opacity:0.40000001;stroke-dasharray:none"/>
    <rect style="fill:url(#radialGradient4553);fill-opacity:1;stroke:none" id="rect4545" width="64" height="12" x="0" y="52" transform="translate(0,988.36217)"/>
    <path style="fill:url(#radialGradient4734);fill-opacity:1;stroke:#070700;stroke-width:1;stroke-linecap:round;stroke-linejoin:round;stroke-miterlimit:4;stroke-opacity:0.13333333999999999;stroke-dasharray:none" d="m 32,1020.3622 c 0,0 11.049056,15.0264 9,23 -0.971952,3.7823 -5.094875,7.5 -9,7.5 -3.905125,0 -8.028048,-3.7177 -9,-7.5 -2.049056,-7.9736 9,-23 9,-23 z" id="path4638" inkscape:connector-curvature="0" sodipodi:nodetypes="caaac"/>
    <path sodipodi:nodetypes="caaac" inkscape:connector-curvature="0" id="path4640" d="m 32,1025.9622 c 0,0 7.538128,11.056 6,16.8 -0.678963,2.5356 -3.375119,5.1 -6,5.1 -2.624881,0 -5.321037,-2.5644 -6,-5.1 -1.538128,-5.744 6,-16.8 6,-16.8 z" style="fill:none;stroke:#f7f7f0;stroke-width:3;stroke-linecap:round;stroke-linejoin:round;stroke-miterlimit:4;stroke-opacity:0.40000001;stroke-dasharray:none"/>
    <path sodipodi:nodetypes="caaac" inkscape:connector-curvature="0" id="path4648" d="m 31.99997,1020.3622 c 0,0 -15.0264,11.0491 -23.00003,9 -3.78224,-0.972 -7.5,-5.0949 -7.5,-9 0,-3.9051 3.71776,-8.028 7.5,-9 7.97363,-2.0491 23.00003,9 23.00003,9 z" style="fill:url(#radialGradient4746);fill-opacity:1;stroke:#070700;stroke-width:1;stroke-linecap:round;stroke-linejoin:round;stroke-miterlimit:4;stroke-opacity:0.13333333999999999;stroke-dasharray:none"/>
    <path style="fill:none;stroke:#f7f7f0;stroke-width:3;stroke-linecap:round;stroke-linejoin:round;stroke-miterlimit:4;stroke-opacity:0.40000001;stroke-dasharray:none" d="m 26.39997,1020.3622 c 0,0 -11.056,7.5381 -16.80003,6 -2.53555,-0.679 -5.1,-3.3751 -5.1,-6 0,-2.6249 2.56445,-5.321 5.1,-6 5.74403,-1.5381 16.80003,6 16.80003,6 z" id="path4650" inkscape:connector-curvature="0" sodipodi:nodetypes="caaac"/>
    <path style="fill:url(#radialGradient4728);fill-opacity:1;stroke:#070700;stroke-width:1;stroke-linecap:round;stroke-linejoin:round;stroke-miterlimit:4;stroke-opacity:0.13333333999999999;stroke-dasharray:none" d="m 32.000003,1020.3622 c 0,0 18.438132,2.8124 22.627439,9.8995 1.987173,3.3617 1.70068,8.9059 -1.060661,11.6673 -2.76134,2.7613 -8.30554,3.0478 -11.667262,1.0606 -7.087109,-4.1893 -9.899516,-22.6274 -9.899516,-22.6274 z" id="path4658" inkscape:connector-curvature="0" sodipodi:nodetypes="caaac"/>
    <path sodipodi:nodetypes="caaac" inkscape:connector-curvature="0" id="path4660" d="m 35.959801,1024.322 c 0,0 13.148034,2.4875 16.122056,7.6368 1.312805,2.273 1.219675,5.9928 -0.636396,7.8488 -1.856071,1.8561 -5.575881,1.9492 -7.848885,0.6364 -5.149264,-2.974 -7.636775,-16.122 -7.636775,-16.122 z" style="fill:none;stroke:#f7f7f0;stroke-width:3;stroke-linecap:round;stroke-linejoin:round;stroke-miterlimit:4;stroke-opacity:0.40000001;stroke-dasharray:none"/>
    <path sodipodi:nodetypes="caaac" inkscape:connector-curvature="0" id="path4668" d="m 31.999983,1020.3622 c 0,0 -2.812407,18.4381 -9.899516,22.6274 -3.361722,1.9872 -8.905922,1.7007 -11.667262,-1.0607 -2.7613407,-2.7613 -3.0478342,-8.3055 -1.0606605,-11.6672 4.1893065,-7.0871 22.6274385,-9.8995 22.6274385,-9.8995 z" style="fill:url(#radialGradient4740);fill-opacity:1;stroke:#070700;stroke-width:1;stroke-linecap:round;stroke-linejoin:round;stroke-miterlimit:4;stroke-opacity:0.13333333999999999;stroke-dasharray:none"/>
    <path style="fill:none;stroke:#f7f7f0;stroke-width:3;stroke-linecap:round;stroke-linejoin:round;stroke-miterlimit:4;stroke-opacity:0.40000001;stroke-dasharray:none" d="m 28.040185,1024.322 c 0,0 -2.487511,13.148 -7.636775,16.122 -2.273004,1.3128 -5.992814,1.2197 -7.848885,-0.6364 -1.856071,-1.8561 -1.949201,-5.5759 -0.636396,-7.8489 2.974022,-5.1492 16.122056,-7.6367 16.122056,-7.6367 z" id="path4670" inkscape:connector-curvature="0" sodipodi:nodetypes="caaac"/>
    <path style="fill:url(#radialGradient4700);fill-opacity:1;stroke:#070700;stroke-width:1;stroke-linecap:round;stroke-linejoin:round;stroke-miterlimit:4;stroke-opacity:0.13333333999999999;stroke-dasharray:none" d="m 32.000017,1020.3622 c 0,0 -18.438132,-2.8125 -22.6274385,-9.8996 -1.9871737,-3.3617 -1.7006802,-8.9059 1.0606605,-11.66723 2.76134,-2.76134 8.30554,-3.04783 11.667262,-1.06066 7.087109,4.18929 9.899516,22.62749 9.899516,22.62749 z" id="path4678" inkscape:connector-curvature="0" sodipodi:nodetypes="caaac"/>
    <path sodipodi:nodetypes="caaac" inkscape:connector-curvature="0" id="path4680" d="m 28.040219,1016.4024 c 0,0 -13.148034,-2.4876 -16.122056,-7.6368 -1.312805,-2.273 -1.219675,-5.9928 0.636396,-7.8489 1.856071,-1.85608 5.575881,-1.94921 7.848885,-0.6364 5.149264,2.974 7.636775,16.1221 7.636775,16.1221 z" style="fill:none;stroke:#f7f7f0;stroke-width:3;stroke-linecap:round;stroke-linejoin:round;stroke-miterlimit:4;stroke-opacity:0.40000001;stroke-dasharray:none"/>
    <path sodipodi:nodetypes="caaac" inkscape:connector-curvature="0" id="path4688" d="m 32.000017,1020.3622 c 0,0 2.812407,-18.4381 9.899516,-22.62745 3.361722,-1.98718 8.905922,-1.70068 11.667262,1.06066 2.761341,2.76129 3.047834,8.30549 1.06066,11.66729 -4.189306,7.0871 -22.627438,9.8995 -22.627438,9.8995 z" style="fill:url(#radialGradient4716);fill-opacity:1;stroke:#070700;stroke-width:1;stroke-linecap:round;stroke-linejoin:round;stroke-miterlimit:4;stroke-opacity:0.13333333999999999;stroke-dasharray:none"/>
    <path style="fill:none;stroke:#f7f7f0;stroke-width:3;stroke-linecap:round;stroke-linejoin:round;stroke-miterlimit:4;stroke-opacity:0.40000001;stroke-dasharray:none" d="m 35.959815,1016.4024 c 0,0 2.487511,-13.148 7.636775,-16.1221 2.273004,-1.31277 5.992814,-1.21964 7.848885,0.6364 1.856071,1.8561 1.949201,5.5759 0.636396,7.8489 -2.974022,5.1493 -16.122056,7.6368 -16.122056,7.6368 z" id="path4690" inkscape:connector-curvature="0" sodipodi:nodetypes="caaac"/>
    <path sodipodi:type="arc" style="fill:url(#radialGradient4764);fill-opacity:1;stroke:#e78707;stroke-width:1;stroke-linecap:round;stroke-linejoin:round;stroke-miterlimit:4;stroke-opacity:0.60000002;stroke-dasharray:none" id="path4522" sodipodi:cx="13" sodipodi:cy="12" sodipodi:rx="8.5" sodipodi:ry="8.5000296" d="m 21.5,12 a 8.5,8.5000296 0 1 1 -17,0 8.5,8.5000296 0 1 1 17,0 z" transform="translate(19,1008.3621)"/>
    <path transform="translate(19,1008.3622)" d="m 18.5,12 a 5.5,5.50003 0 1 1 -11,0 5.5,5.50003 0 1 1 11,0 z" sodipodi:ry="5.50003" sodipodi:rx="5.5" sodipodi:cy="12" sodipodi:cx="13" id="path4524" style="fill:none;stroke:#f7f7f0;stroke-width:3;stroke-linecap:round;stroke-linejoin:round;stroke-miterlimit:4;stroke-opacity:0.26666668;stroke-dasharray:none" sodipodi:type="arc"/>
  </g>
</svg>